<svg xmlns="http://www.w3.org/2000/svg" viewBox="0 0 1200 630">
  <defs>
    <linearGradient id="bg" x1="0" y1="0" x2="1" y2="1">
      <stop offset="0" stop-color="#111113"/>
      <stop offset="1" stop-color="#0b0b0d"/>
    </linearGradient>
  </defs>
  <rect width="1200" height="630" fill="url(#bg)"/>
  <g fill="none" stroke="#2a2a2f" opacity="0.8">
    <path d="M0 90 H1200"/>
    <path d="M0 180 H1200"/>
    <path d="M0 270 H1200"/>
    <path d="M0 360 H1200"/>
    <path d="M0 450 H1200"/>
    <path d="M0 540 H1200"/>
  </g>
  <g transform="translate(100 120)">
    <rect x="0" y="0" width="460" height="390" rx="12" fill="#1c1c22" stroke="#2a2a2f"/>
    <rect x="40" y="40" width="120" height="120" rx="8" fill="#a1a1aa"/>
    <rect x="180" y="40" width="220" height="24" rx="6" fill="#3f3f46"/>
    <rect x="180" y="74" width="220" height="16" rx="6" fill="#2a2a2f"/>
    <rect x="40" y="180" width="360" height="16" rx="6" fill="#2a2a2f"/>
    <rect x="40" y="210" width="360" height="16" rx="6" fill="#2a2a2f"/>
    <rect x="40" y="240" width="280" height="16" rx="6" fill="#2a2a2f"/>
  </g>
  <text x="640" y="300" font-family="Inter, Arial, sans-serif" font-weight="700" font-size="72" fill="#e4e4e7">Warrenwalker</text>
  <text x="640" y="360" font-family="Inter, Arial, sans-serif" font-size="28" fill="#a1a1aa">Launching soon on Legitimate Shed</text>
</svg>
